PathFileType	4	(X/Y/Z)	path1_02_0-549.trc
DataRate	CameraRate	NumFrames	NumMarkers	Units	OrigDataRate	OrigDataStartFrame	OrigNumFrames
30	30	8	22	m	30	137	549
Frame#	Time	Hip			RHip			RKnee			RAnkle			RBigToe			RSmallToe			RHeel			LHip			LKnee			LAnkle			LBigToe			LSmallToe			LHeel			Neck			Head			Nose			RShoulder			RElbow			RWrist			LShoulder			LElbow			LWrist		
		X1	Y1	Z1	X2	Y2	Z2	X3	Y3	Z3	X4	Y4	Z4	X5	Y5	Z5	X6	Y6	Z6	X7	Y7	Z7	X8	Y8	Z8	X9	Y9	Z9	X10	Y10	Z10	X11	Y11	Z11	X12	Y12	Z12	X13	Y13	Z13	X14	Y14	Z14	X15	Y15	Z15	X16	Y16	Z16	X17	Y17	Z17	X18	Y18	Z18	X19	Y19	Z19	X20	Y20	Z20	X21	Y21	Z21	X22	Y22	Z22
138	4.6	2.595960062511838	0.8345388782220973	0.21574319248911422	2.5967841111803107	0.7979789621953356	0.1349576969224821	2.6128503123961733	0.4505183317612365	0.16067425772085364	2.6553421031212303	0.09772182067855904	0.1557797581512288	2.4754081983690606	0.019720324003786257	0.14306383744699422	2.5056036316849957	0.022308379983726097	0.07259155511165727	2.698464328498002	0.03363131653881581	0.15624727813269954	2.5950223950130984	0.7957174568289104	0.29027379901449424	2.6123319769373645	0.4391394294903648	0.27261920234758286	2.658673543696186	0.10016469890468367	0.2950990180085309	2.4721690706162933	0.020051658795905525	0.30079406116624335	2.5125630207905747	0.027625026079999324	0.3420982766264803	2.690507355099831	0.038049693113895645	0.2722007762048938	2.563746729147471	1.4675982144227704	0.237878447195586	2.5337847934954416	1.7093929342371703	0.23058525578813313	2.4262402180156544	1.6054638241433306	0.2347167420057925	2.6042724843821836	1.360780968160651	0.06417806996999902	2.566644567829337	1.068365332929866	0.004944832807126094	2.4874462701244853	0.8448777258522048	0.025257432209777303	2.596800820275296	1.3422603438565912	0.36069955771185935	2.566425700599788	1.0666516607356886	0.42291909866397837	2.495896458380897	0.8427346231981433	0.406951057348986
139	4.633333333333334	2.595727258489706	0.834643564958626	0.21555619888023164	2.596591221372028	0.7979813464254445	0.13475882317817256	2.612868609460202	0.45058070733888855	0.16089674674758617	2.655233885240525	0.09814151161158831	0.15565434052551314	2.475450188552734	0.020199463734685577	0.1434342404289188	2.5051247098036	0.022862685617885015	0.07232538121192021	2.696956614399317	0.03408409708008005	0.15492181935122978	2.5950705834537806	0.7956722864466116	0.29012560689028494	2.61247105247583	0.43881681317903504	0.27259440193360795	2.6587921465133317	0.0998245848457363	0.29488354230032465	2.472183109682179	0.019993620121759034	0.30074199162959886	2.513157777897873	0.027142130830038948	0.34197007947080577	2.6904515725812894	0.038228069177488	0.2718235567806382	2.5639452398891303	1.4676021285367356	0.23796052544415952	2.534345240033352	1.708841194088813	0.23191064214742743	2.426128350960031	1.6056980846605795	0.23386020635071014	2.6045453311499482	1.3608285122423522	0.06461752889279788	2.566613432640838	1.0683903923307834	0.004856865057651249	2.487383831992038	0.8450463089733133	0.024847573129486225	2.5968216371045667	1.3423601036726633	0.36078039811218415	2.566478144633069	1.0667229879325377	0.4229319647148865	2.4961375479477987	0.8428886886859869	0.4069103767655198
140	4.666666666666667	2.5956022780989096	0.8348656800435771	0.21536521220514546	2.5964734972373513	0.7981104704306874	0.13459107878428334	2.6129683896947915	0.45060619497013515	0.16103206168697562	2.6552051110566657	0.0985850050847184	0.15558563241412504	2.4754531332980365	0.02083033655937158	0.14372211613571528	2.504760092669982	0.02335804995202768	0.0720881097752809	2.69614848077127	0.03449963906092856	0.1534992718397753	2.595169107401494	0.7957774084514415	0.2899207897770561	2.6125853464692455	0.4385527263542452	0.2725440203785449	2.6587815405625586	0.09959157492054595	0.29481107636931614	2.4723513862145245	0.019972303705385185	0.3006833682841216	2.513844634954254	0.02684308710061552	0.3419146773331144	2.6904020807500144	0.03854681681687896	0.27158104148231565	2.5642100513817025	1.4676607564999888	0.23807165707783112	2.5348286695545665	1.7084105751590344	0.2333242615574569	2.426179655296255	1.6058406950480397	0.23372689703234495	2.604850393488437	1.3608962216999358	0.06492342887193858	2.5666094879020567	1.0684235554600658	0.0045860109270722624	2.4872450527562657	0.8452275021913518	0.024290311395301974	2.5968778193767625	1.3425667050251	0.3609326988116642	2.5666525206682094	1.0667334765516143	0.42299684374026997	2.4962943310404566	0.8430097294480287	0.4068718335843269
141	4.7	2.595610605409642	0.8351838122027914	0.21519328936763482	2.59639414585356	0.7983654678405532	0.13443493887550664	2.6131524126287347	0.45056506285070413	0.16100510931744655	2.6552859708426038	0.09899552610605111	0.15554993993901295	2.4755907499147876	0.0213765573372601	0.14406129042487578	2.5046611013154583	0.023725551036121374	0.07195901140700504	2.696265605373964	0.03458922347590322	0.15202201059636913	2.5953681289374533	0.7959842814807198	0.2896618861845868	2.6128158171083182	0.4384174107380818	0.2724877434433962	2.6587365802736853	0.09959878758540956	0.2949776009395883	2.472616378250103	0.02003626606357964	0.3006626610936723	2.514640330776477	0.02680608901032085	0.34199708617669855	2.690734964625637	0.03883468033045573	0.2717691111374391	2.5645118344021003	1.467757679032105	0.23828229383636265	2.5350587656567307	1.7082423761242218	0.23414032697302248	2.4263607463294377	1.6058680989323098	0.2340321023350763	2.605139692734567	1.3609656875900504	0.064988940736983	2.566670825413231	1.068511631428509	0.00412081577531477	2.4871269604358077	0.8454215951699343	0.023711264936048006	2.5970785644905727	1.3428662142862966	0.3610979153600541	2.566892687722355	1.066667448345109	0.4230805295863457	2.496362577331564	0.8430810405554482	0.406813747752667
142	4.733333333333333	2.595728232432722	0.8355439445181221	0.21507581628437364	2.5963190148470194	0.7987061917106122	0.13429233043881703	2.6133986272358656	0.4504579030511757	0.1607972565532518	2.655478419292022	0.09927698640754229	0.1555181750446049	2.4759499268303204	0.021701042151053417	0.14444098210610762	2.5048693221354554	0.02397269566052712	0.07206585990962419	2.697235206080538	0.03413583019508763	0.15054947898889798	2.595660238141636	0.7961774663817585	0.2893704569812398	2.6132716426930886	0.4383810872501054	0.2724346384729879	2.658758560470988	0.09986201789380159	0.2953655235974666	2.4729062395608987	0.020221972581628677	0.3006830169946333	2.5155284203942987	0.027003292337802565	0.34222273497166233	2.691941527417003	0.03879026368203662	0.2726944550084642	2.5647674003976353	1.4678657088566132	0.23859590164971284	2.534925098267997	1.7083601820847427	0.23387602032661045	2.4265759156385625	1.605753569781354	0.23442143054394934	2.6053548302263887	1.3610193169019886	0.06481826210629078	2.5667844038031644	1.0686965989337691	0.003528788352898006	2.487118761740505	0.8456377652999556	0.023276297926463508	2.597463765625135	1.3431988311965721	0.36122672524928545	2.5671306758930994	1.0665281011088128	0.4231490788772112	2.496347053521413	0.843077004697877	0.4067122039421156
143	4.766666666666667	2.595950195147161	0.8358850962075367	0.21507246892821913	2.5962938927626404	0.7990830560028566	0.13418689407600082	2.6136427226649146	0.4503144605963006	0.1604505475397585	2.6557580985978584	0.09932317687437232	0.15549173531579563	2.4765236718532466	0.021802545754544485	0.14469503335591835	2.505381930078717	0.02409516678198324	0.0725020214014705	2.6987279441009697	0.03318991654264088	0.1493169730076604	2.5959875661187235	0.7962803548338357	0.28910188127916353	2.6138978483669315	0.4383516988773262	0.27240619133704674	2.658929670125814	0.10028650490506373	0.29584856247616675	2.4731701955153635	0.020544827185628355	0.3007364527805464	2.5164156732405734	0.0272884654957975	0.34259776930866714	2.6944164798223795	0.03811458327899092	0.27448742558391087	2.5649030166492506	1.4679633590587955	0.23896934818604898	2.5345073503215785	1.7085810483830595	0.23257404851285196	2.4267498645744707	1.60549121713815	0.2346614045908179	2.6054569579500817	1.3610897319813513	0.0645242473849138	2.566904622546029	1.0689780352450808	0.0029045655270486135	2.487249559943988	0.8458653576100894	0.02308776243499263	2.5979463963225022	1.3434904686809226	0.36127920820928067	2.5673327831305013	1.06634364087077	0.4231936219207627	2.496266112002461	0.8429791587500464	0.4065591232216243
144	4.8	2.5962688333143205	0.836168008447867	0.21522249437981655	2.596388461370761	0.7994581443572083	0.13414237039833588	2.6138052634080298	0.45016449667282704	0.16003235021496096	2.6560736675353107	0.09908808735624429	0.15550583573323867	2.4771674840785542	0.021800785650580995	0.14458819806302792	2.5061020380931085	0.02405222347707393	0.07324913326774689	2.7003022664824	0.03205828406189323	0.14868078387476735	2.5962844639042832	0.7962903102835205	0.28893039853790964	2.6144602564738997	0.4383029124036413	0.2724696675944477	2.6592531518911833	0.10074535486225235	0.2962587934774666	2.473389264621764	0.020986020310612537	0.3008149451248827	2.5171189515409345	0.0274281750673507	0.3431466034934603	2.6980907589634144	0.03670460271024713	0.2769019312594935	2.56490130469771	1.4680497436262225	0.23936037052360912	2.534021830810931	1.7087079189387222	0.23079514225157177	2.426871831765556	1.6051538143703972	0.23470524517638702	2.6054577247781383	1.3612343170690586	0.06424728862605723	2.567027451181797	1.0693093262542945	0.0023307930272918895	2.4874985142042507	0.8460639246937914	0.023135208256903135	2.598408398834237	1.3437170962207465	0.361239206343728	2.567504878196289	1.06615025381163	0.4232267846119992	2.496147907133763	0.8428146487058564	0.4063752542823539
145	4.833333333333333	2.5966150262048395	0.836378609812922	0.2154770312639025	2.5965782608522012	0.79980526219277	0.13417311705911275	2.6138380886218386	0.45003033075433463	0.1595969164868627	2.6563671489397906	0.0986340450483308	0.1555846247871964	2.47766672097908	0.021871858541570362	0.14395605139377857	2.50684219576938	0.023821056514057602	0.07416654953020466	2.7016360325890787	0.03109642231339923	0.14887946788166395	2.5965033713790207	0.7962385717985849	0.2888896530881145	2.6146443557410173	0.4383759468078521	0.27277342842355673	2.659635906053088	0.10113841695326373	0.2964649027267214	2.4735440342465305	0.021484717104773246	0.30089074553057005	2.517446661021124	0.027123871983520512	0.3438727460972033	2.702257599544376	0.03478851796305072	0.2792660978996923	2.564791934365008	1.4681390028736758	0.2397188073321073	2.533671781279808	1.70868617346562	0.22922165035151618	2.4269707120284068	1.6048654810880767	0.23460352250139518	2.6053841052518627	1.361457906084027	0.06405891968670058	2.5671691279753786	1.069614398151138	0.0018661475389483892	2.4878115246146337	0.8461838127333924	0.02333550327647952	2.59881872323548	1.343902156058709	0.36112382234252366	2.567654660263138	1.0659713175381564	0.4232518726428767	2.496017220183617	0.8426782106218141	0.4062129809177707
